<?xml version="1.0" standalone="no"?><!DOCTYPE svg PUBLIC "-//W3C//DTD SVG 1.1//EN" "http://www.w3.org/Graphics/SVG/1.1/DTD/svg11.dtd"><svg t="1507697607443" class="icon" style="" viewBox="0 0 1024 1024" version="1.1" xmlns="http://www.w3.org/2000/svg" p-id="8844" xmlns:xlink="http://www.w3.org/1999/xlink" width="48" height="48"><defs><style type="text/css"></style></defs><path d="M465.92 997.376c0 13.312 19.968 26.624 46.08 26.624s46.08-13.312 46.08-26.624-19.968-26.624-46.08-26.624-46.08 13.824-46.08 26.624z" fill="#7E7E7E" p-id="8845"></path><path d="M492.032 997.376h43.008c3.072 0 6.656-3.072 6.656-6.656V650.24c0-3.072-3.072-6.656-6.656-6.656h-43.008c-3.072 0-6.656 3.072-6.656 6.656v340.48c0 3.584 3.584 6.656 6.656 6.656z" fill="#D8D8D8" p-id="8846"></path><path d="M181.76 327.168c0 178.176 148.48 327.168 330.24 327.168s330.24-145.408 330.24-327.168-148.48-327.168-330.24-327.168-330.24 145.408-330.24 327.168z" fill="#00D1A2" p-id="8847"></path><path d="M366.592 327.168c0 79.36 66.048 145.408 145.408 145.408s145.408-66.048 145.408-145.408c0-79.36-66.048-145.408-145.408-145.408-82.432 0-145.408 66.048-145.408 145.408z" fill="#FFFFFF" p-id="8848"></path></svg>