<?xml version="1.0" standalone="no"?><!DOCTYPE svg PUBLIC "-//W3C//DTD SVG 1.1//EN" "http://www.w3.org/Graphics/SVG/1.1/DTD/svg11.dtd"><svg t="1502427023706" class="icon" style="" viewBox="0 0 1024 1024" version="1.1" xmlns="http://www.w3.org/2000/svg" p-id="2405" xmlns:xlink="http://www.w3.org/1999/xlink" width="48" height="48"><defs><style type="text/css"></style></defs><path d="M90.763636 350.254545a130.327273 110.545455 90 1 0 221.090909 0 130.327273 110.545455 90 1 0-221.090909 0Z" fill="#ABABD8" p-id="2406"></path><path d="M201.309091 498.036364c-69.818182 0-128-66.327273-128-147.781819 0-81.454545 57.018182-147.781818 128-147.781818s128 66.327273 128 147.781818c-1.163636 81.454545-58.181818 147.781818-128 147.781819z m0-260.654546c-51.2 0-93.090909 50.036364-93.090909 112.872727 0 61.672727 41.890909 112.872727 93.090909 112.872728s93.090909-50.036364 93.090909-112.872728c-1.163636-61.672727-41.890909-112.872727-93.090909-112.872727z" fill="#4F0D0E" p-id="2407"></path><path d="M712.145455 350.254545a130.327273 110.545455 90 1 0 221.090909 0 130.327273 110.545455 90 1 0-221.090909 0Z" fill="#ABABD8" p-id="2408"></path><path d="M822.690909 498.036364c-69.818182 0-128-66.327273-128-147.781819 0-81.454545 57.018182-147.781818 128-147.781818s128 66.327273 128 147.781818c0 81.454545-57.018182 147.781818-128 147.781819z m0-260.654546c-51.2 0-93.090909 50.036364-93.090909 112.872727 0 61.672727 41.890909 112.872727 93.090909 112.872728s93.090909-50.036364 93.090909-112.872728c0-61.672727-41.890909-112.872727-93.090909-112.872727z" fill="#4F0D0E" p-id="2409"></path><path d="M815.709091 531.781818m-110.545455 0a110.545455 110.545455 0 1 0 221.090909 0 110.545455 110.545455 0 1 0-221.090909 0Z" fill="#ABABD8" p-id="2410"></path><path d="M815.709091 659.781818c-69.818182 0-128-57.018182-128-128 0-69.818182 57.018182-128 128-128s128 57.018182 128 128c-1.163636 70.981818-58.181818 128-128 128z m0-219.927273c-51.2 0-93.090909 41.890909-93.090909 93.09091s41.890909 93.090909 93.090909 93.090909 93.090909-41.890909 93.090909-93.090909c-1.163636-51.2-43.054545-93.090909-93.090909-93.09091z" fill="#4F0D0E" p-id="2411"></path><path d="M210.618182 531.781818m-110.545455 0a110.545455 110.545455 0 1 0 221.090909 0 110.545455 110.545455 0 1 0-221.090909 0Z" fill="#ABABD8" p-id="2412"></path><path d="M210.618182 659.781818c-69.818182 0-128-57.018182-128-128 0-69.818182 57.018182-128 128-128s128 57.018182 128 128c-1.163636 70.981818-58.181818 128-128 128z m0-219.927273c-51.2 0-93.090909 41.890909-93.090909 93.09091s41.890909 93.090909 93.090909 93.090909 93.090909-41.890909 93.090909-93.090909c-1.163636-51.2-43.054545-93.090909-93.090909-93.09091z" fill="#4F0D0E" p-id="2413"></path><path d="M512 984.436364c-84.945455 0-125.672727-61.672727-125.672727-61.672728s-73.309091 25.6-117.527273-15.127272c-54.690909-48.872727-86.109091-137.309091-86.109091-215.272728V330.472727c0-159.418182 131.490909-290.909091 292.072727-290.909091h75.636364c160.581818 0 292.072727 131.490909 292.072727 292.072728v361.890909c0 76.8-26.763636 180.363636-86.109091 221.090909-53.527273 36.072727-116.363636 9.309091-116.363636 9.309091s-43.054545 60.509091-128 60.509091z" fill="#F5C8B4" p-id="2414"></path><path d="M353.745455 907.636364C299.054545 859.927273 267.636364 771.490909 267.636364 693.527273V330.472727c0-158.254545 129.163636-288.581818 287.418181-290.909091h-80.290909c-160.581818 0-292.072727 131.490909-292.072727 290.909091v361.890909c0 77.963636 31.418182 166.4 86.109091 215.272728 37.236364 33.745455 95.418182 20.945455 112.872727 16.290909-10.472727-3.490909-19.781818-8.145455-27.927272-16.290909z" fill="#FCDFD4" p-id="2415"></path><path d="M555.054545 39.563636h-90.763636c153.6 8.145455 275.781818 136.145455 275.781818 290.909091v361.890909c0 76.8-26.763636 180.363636-86.109091 221.090909-8.145455 5.818182-9.309091-9.309091-23.272727-4.654545-33.745455 10.472727-62.836364 32.581818-118.690909 32.581818-60.509091 0-121.018182-36.072727-121.018182-36.072727s17.454545 40.727273 73.309091 70.981818c15.127273 5.818182 32.581818 9.309091 52.363636 9.309091 84.945455 0 126.836364-61.672727 126.836364-61.672727s62.836364 26.763636 116.363636-9.309091c59.345455-39.563636 86.109091-143.127273 86.109091-221.090909V330.472727c1.163636-159.418182-130.327273-290.909091-290.909091-290.909091z" fill="#EBA383" p-id="2416"></path><path d="M435.2 559.709091s-64 4.654545-84.945455 4.654545c-20.945455 0-84.945455-4.654545-84.945454-4.654545-24.436364 0-43.054545-19.781818-43.054546-43.054546v-41.890909c0-24.436364 19.781818-43.054545 43.054546-43.054545 0 0 68.654545-5.818182 89.6-5.818182s80.290909 5.818182 80.290909 5.818182c24.436364 0 43.054545 19.781818 43.054545 43.054545v41.890909c1.163636 23.272727-18.618182 43.054545-43.054545 43.054546z" fill="#F9E4DC" p-id="2417"></path><path d="M350.254545 581.818182c-20.945455 0-79.127273-3.490909-86.10909-4.654546-33.745455 0-60.509091-27.927273-60.509091-60.509091v-41.890909c0-33.745455 26.763636-60.509091 60.509091-60.509091 6.981818 0 69.818182-5.818182 90.763636-5.818181 20.945455 0 73.309091 4.654545 81.454545 5.818181 33.745455 0 60.509091 27.927273 60.509091 60.509091v41.890909c0 33.745455-26.763636 60.509091-60.509091 60.509091-6.981818 0-65.163636 4.654545-86.109091 4.654546z m-84.945454-133.818182c-13.963636 0-25.6 11.636364-25.6 25.6v41.890909c0 13.963636 11.636364 25.6 25.6 25.6h1.163636c1.163636 0 64 4.654545 83.781818 4.654546s83.781818-4.654545 83.781819-4.654546h1.163636c13.963636 0 25.6-11.636364 25.6-25.6v-41.890909c0-13.963636-11.636364-25.6-25.6-25.6h-1.163636s-58.181818-5.818182-77.963637-5.818182c-19.781818 0-88.436364 5.818182-88.436363 5.818182h-2.327273z" fill="#510F0E" p-id="2418"></path><path d="M758.690909 559.709091s-64 4.654545-84.945454 4.654545c-20.945455 0-84.945455-4.654545-84.945455-4.654545-24.436364 0-43.054545-19.781818-43.054545-43.054546v-41.890909c0-24.436364 19.781818-43.054545 43.054545-43.054545 0 0 68.654545-5.818182 89.6-5.818182 20.945455 0 80.290909 5.818182 80.290909 5.818182 24.436364 0 43.054545 19.781818 43.054546 43.054545v41.890909c1.163636 23.272727-18.618182 43.054545-43.054546 43.054546z" fill="#F9E4DC" p-id="2419"></path><path d="M673.745455 581.818182c-20.945455 0-79.127273-3.490909-86.109091-4.654546-33.745455 0-60.509091-27.927273-60.509091-60.509091v-41.890909c0-33.745455 26.763636-60.509091 60.509091-60.509091 6.981818 0 69.818182-5.818182 90.763636-5.818181 20.945455 0 73.309091 4.654545 81.454545 5.818181 33.745455 0 60.509091 27.927273 60.509091 60.509091v41.890909c0 33.745455-26.763636 60.509091-60.509091 60.509091-6.981818 0-65.163636 4.654545-86.10909 4.654546z m-84.945455-133.818182c-13.963636 0-25.6 11.636364-25.6 25.6v41.890909c0 13.963636 11.636364 25.6 25.6 25.6h1.163636c1.163636 0 64 4.654545 83.781819 4.654546s83.781818-4.654545 83.781818-4.654546h1.163636c13.963636 0 25.6-11.636364 25.6-25.6v-41.890909c0-13.963636-11.636364-25.6-25.6-25.6h-1.163636s-58.181818-5.818182-77.963637-5.818182c-19.781818 0-88.436364 5.818182-88.436363 5.818182h-2.327273z" fill="#510F0E" p-id="2420"></path><path d="M464.290909 478.254545c-4.654545 0-8.145455-1.163636-11.636364-4.654545-6.981818-6.981818-6.981818-17.454545-1.163636-24.436364 2.327273-2.327273 24.436364-25.6 58.181818-26.763636 20.945455 0 40.727273 8.145455 58.181818 26.763636 6.981818 6.981818 6.981818 17.454545 0 24.436364-6.981818 6.981818-17.454545 6.981818-24.436363 0-10.472727-10.472727-22.109091-16.290909-33.745455-16.290909-18.618182 0-32.581818 15.127273-32.581818 15.127273-3.490909 4.654545-8.145455 5.818182-12.8 5.818181z" fill="#510F0E" p-id="2421"></path><path d="M508.509091 815.709091c-37.236364 0-66.327273-15.127273-81.454546-26.763636-6.981818-5.818182-8.145455-17.454545-2.327272-24.436364 5.818182-6.981818 17.454545-8.145455 24.436363-2.327273 2.327273 2.327273 53.527273 43.054545 124.509091-2.327273 8.145455-4.654545 18.618182-2.327273 24.436364 5.818182 4.654545 8.145455 2.327273 18.618182-5.818182 24.436364-29.090909 18.618182-58.181818 25.6-83.781818 25.6z" fill="#EDA2CB" p-id="2422"></path><path d="M512 1001.890909c-72.145455 0-115.2-39.563636-131.490909-59.345454-25.6 5.818182-82.618182 13.963636-123.345455-22.109091-54.690909-48.872727-91.927273-140.8-91.927272-228.072728V330.472727c0-169.890909 138.472727-309.527273 309.527272-309.527272h75.636364c169.890909 0 309.527273 138.472727 309.527273 309.527272v361.890909c0 82.618182-29.090909 192-94.254546 235.054546-45.381818 30.254545-96.581818 22.109091-119.854545 15.127273-18.618182 19.781818-61.672727 59.345455-133.818182 59.345454z m-117.527273-100.072727l6.981818 11.636363c1.163636 2.327273 36.072727 54.690909 110.545455 54.69091s110.545455-52.363636 112.872727-54.69091l8.145455-11.636363 12.8 5.818182s54.690909 22.109091 100.072727-6.981819c51.2-34.909091 77.963636-130.327273 77.963636-205.963636V330.472727c0-151.272727-123.345455-274.618182-274.618181-274.618182h-75.636364c-151.272727 0-274.618182 123.345455-274.618182 274.618182v361.890909c0 77.963636 32.581818 159.418182 80.290909 201.309091 37.236364 32.581818 100.072727 11.636364 100.072728 11.636364l15.127272-3.490909z" fill="#510F0E" p-id="2423"></path><path d="M671.418182 828.509091c-2.327273 0-5.818182-1.163636-8.145455-2.327273-3.490909-2.327273-84.945455-44.218182-90.763636-139.636363-1.163636-9.309091 6.981818-17.454545 16.290909-18.618182 9.309091 0 17.454545 6.981818 18.618182 16.290909 4.654545 75.636364 68.654545 109.381818 70.981818 110.545454 8.145455 4.654545 11.636364 15.127273 6.981818 23.272728-2.327273 6.981818-8.145455 10.472727-13.963636 10.472727z" fill="#EBA383" p-id="2424"></path><path d="M350.254545 828.509091c-5.818182 0-12.8-3.490909-15.127272-9.309091-4.654545-8.145455-1.163636-18.618182 8.145454-23.272727 3.490909-1.163636 66.327273-36.072727 70.981818-110.545455 1.163636-9.309091 9.309091-17.454545 18.618182-16.290909 9.309091 1.163636 17.454545 9.309091 16.290909 18.618182-5.818182 95.418182-87.272727 138.472727-90.763636 139.636364-2.327273 1.163636-4.654545 1.163636-8.145455 1.163636z" fill="#EBA383" p-id="2425"></path><path d="M705.163636 237.381818c-2.327273 0-3.490909 0-5.818181-1.163636-194.327273-69.818182-371.2-1.163636-372.363637 0-9.309091 3.490909-18.618182-1.163636-22.109091-9.309091-3.490909-9.309091 1.163636-18.618182 9.309091-22.109091 8.145455-3.490909 189.672727-74.472727 396.8 0 9.309091 3.490909 13.963636 12.8 10.472727 22.109091-2.327273 5.818182-9.309091 10.472727-16.290909 10.472727z" fill="#EBA383" p-id="2426"></path><path d="M705.163636 299.054545c-2.327273 0-3.490909 0-5.818181-1.163636-194.327273-69.818182-371.2-1.163636-372.363637 0-9.309091 3.490909-18.618182-1.163636-22.109091-9.309091-3.490909-9.309091 1.163636-18.618182 9.309091-22.109091 8.145455-3.490909 189.672727-74.472727 396.8 0 9.309091 3.490909 13.963636 12.8 10.472727 22.109091-2.327273 5.818182-9.309091 10.472727-16.290909 10.472727z" fill="#EBA383" p-id="2427"></path></svg>