<?xml version="1.0" standalone="no"?><!DOCTYPE svg PUBLIC "-//W3C//DTD SVG 1.1//EN" "http://www.w3.org/Graphics/SVG/1.1/DTD/svg11.dtd"><svg t="1501986942663" class="icon" style="" viewBox="0 0 1024 1024" version="1.1" xmlns="http://www.w3.org/2000/svg" p-id="4393" xmlns:xlink="http://www.w3.org/1999/xlink" width="48" height="48"><defs><style type="text/css"></style></defs><path d="M510.4 780.8s-144-171.2-193.6-264c0 0-203.2-235.2 64-422.4 0 0 156.8-96 321.6 46.4 0 0 145.6 124.8 30.4 332.8-1.6 0-113.6 208-222.4 307.2z" fill="#81DE7F" p-id="4394"></path><path d="M292.8 889.6c0 38.4 100.8 70.4 225.6 70.4s225.6-32 225.6-70.4c0-38.4-100.8-70.4-225.6-70.4s-225.6 32-225.6 70.4z" fill="#B9B8B7" p-id="4395"></path><path d="M512 128c-100.8 0-180.8 81.6-180.8 180.8s80 182.4 180.8 182.4 180.8-81.6 180.8-180.8S612.8 128 512 128z m6.4 104h72v65.6h-51.2v41.6c0 4.8 1.6 6.4 6.4 6.4h22.4c4.8 0 8-1.6 9.6-4.8 1.6-3.2 1.6-9.6 3.2-19.2l17.6 6.4c-1.6 16-3.2 25.6-6.4 30.4-3.2 4.8-9.6 6.4-19.2 6.4h-33.6c-11.2 0-17.6-6.4-17.6-17.6v-65.6h51.2v-30.4h-54.4v-19.2z m80 163.2H560c-48 0-76.8-3.2-88-8-9.6-4.8-17.6-11.2-24-19.2-3.2 11.2-6.4 22.4-9.6 32l-14.4-12.8c8-20.8 14.4-46.4 14.4-73.6l16 1.6c0 11.2-1.6 22.4-3.2 32 4.8 8 11.2 14.4 16 17.6v-62.4h-38.4v-16H464v-24h-30.4v-16H464v-25.6h17.6v25.6H512v16h-30.4v24h32v16h-27.2v24H512v16h-25.6v32c12.8 3.2 36.8 4.8 72 4.8 19.2 0 35.2 0 44.8-1.6l-4.8 17.6z" fill="#FFFFFF" p-id="4396"></path></svg>