<?xml version="1.0" standalone="no"?><!DOCTYPE svg PUBLIC "-//W3C//DTD SVG 1.1//EN" "http://www.w3.org/Graphics/SVG/1.1/DTD/svg11.dtd"><svg t="1501985949896" class="icon" style="" viewBox="0 0 1024 1024" version="1.1" xmlns="http://www.w3.org/2000/svg" p-id="3666" xmlns:xlink="http://www.w3.org/1999/xlink" width="48" height="48"><defs><style type="text/css"></style></defs><path d="M511.654234 819.133506S206.12987 476.811636 206.12987 307.173403C206.12987 137.561766 342.93361 0 511.654234 0s305.524364 137.535169 305.524363 307.173403-305.524364 511.960104-305.524363 511.960103z" fill="#FF6666" p-id="3667"></path><path d="M768.531948 941.215584c0 42.39626-113.983169 76.8-254.603636 76.8S259.324675 983.598545 259.324675 941.215584C259.324675 898.819325 373.307844 864.415584 513.928312 864.415584s254.603636 34.40374 254.603636 76.8z" fill="#B9B8B7" p-id="3668"></path><path d="M550.167273 0H206.12987z" fill="#FF7575" p-id="3669"></path><path d="M511.654234 102.386701c-112.480416 0-203.682909 91.694545-203.682909 204.786702s91.202494 204.786701 203.682909 204.786701S715.337143 420.238961 715.337143 307.173403 624.134649 102.386701 511.654234 102.386701z" fill="#FFFFFF" p-id="3670"></path><path d="M630.438234 329.355636c-31.863688-8.311688-56.107221-17.660675-72.730598-28.046961-17.328208 10.386286-43.300571 20.772571-77.917091 31.172156a192.538597 192.538597 0 0 0-10.386285-24.935065c26.31813-5.53226 48.473766-13.139117 66.493506-22.860467a172.563948 172.563948 0 0 1-28.046961-34.284052 205.624519 205.624519 0 0 1-20.78587 23.884467l-9.348987-18.697974a1178.610701 1178.610701 0 0 1-51.944727 74.805195l43.633039-4.149195v2.074598a100.830753 100.830753 0 0 0-2.074598 21.823168c-31.172156 2.779429-54.019325 5.199792-68.568104 7.27439l-8.311688-22.860467 1.037299-1.037299c6.915325-5.53226 12.115117-10.732052 15.586078-15.586078 3.457662-4.827429 8.311688-12.101818 14.548779-21.823169 3.457662-5.53226 6.237091-9.694753 8.311688-12.474182-13.857247 0.704831-26.331429 1.74213-37.395948 3.111896l-7.274389-22.860467c5.53226-4.827429 9.694753-10.386286 12.474181-16.623377a640.598442 640.598442 0 0 0 35.321351-68.568104l27.009662 9.348987a875.293922 875.293922 0 0 0-19.735272 33.246754c-11.091117 18.697974-19.402805 32.209455-24.935065 40.521142l29.097558-1.037298c1.383065-2.074597 3.111896-5.199792 5.199792-9.348987 4.149195-6.915325 7.27439-11.769351 9.348987-14.548779l20.772572 10.386285c20.081039-21.450805 34.284052-43.978805 42.59574-67.530805l28.046961 4.149195c-4.149195 6.928623-7.979221 14.203013-11.423584 21.823169h85.19148v23.897766c-14.548779 25.639896-29.097558 44.005403-43.633039 55.069922 15.918545 9.016519 35.321351 15.586078 58.181818 19.735273-0.704831 0.704831-1.396364 2.074597-2.074597 4.149195a279.166338 279.166338 0 0 0-6.263688 20.799168z m-240.001663 85.191481l-4.149194-23.897766c16.623377-2.074597 45.016104-5.864727 85.19148-11.423585a283.129351 283.129351 0 0 0-1.037299 23.897766c-28.406026 3.444364-55.069922 7.261091-80.004987 11.423585z m219.229091 12.460883c-56.107221-14.548779-98.024727-23.897766-125.712623-28.046961l8.311688-24.935065c17.30161 3.48426 45.016104 9.708052 83.116883 18.697974 18.697974 4.149195 32.541922 6.915325 41.558442 8.311688l-7.27439 25.972364z m-10.399584-54.019325c-24.256831-7.606857-54.019325-15.227013-89.353974-22.860467l7.27439-23.897766c16.623377 3.48426 38.779013 8.311688 66.493506 14.548779 10.386286 2.779429 18.338909 4.854026 23.897766 6.237091l-8.311688 25.972363z m-5.186494-143.373298H523.436883c9.694753 16.623377 21.118338 30.493922 34.284052 41.558441 15.213714-11.769351 27.34213-25.613299 36.358649-41.558441z" fill="#FF6666" p-id="3671"></path></svg>